# xmcd CD database file
#
# Track frame offsets:
#	150
#	13971
#	29450
#	43736
#	58890
#	73953
#	87153
#	103997
#	121093
#	138751
#	151729
#	166278
#	177327
#	188094
#	201487
#	213678
#	228471
#	242283
#	256890
#	270954
#	280733
#	301930
#	317249
#	333388
#	348421
#
# Disc length: 4801 seconds
#
# Revision: 3
# Processed by: cddbd v1.5.2PL0 Copyright (c) Steve Scherf et al.
# Submitted via: CDex 1.70beta2
#
DISCID=6e12bf19
DTITLE=Compilation - Les plus grands artistes de Jazz [CD4]
DYEAR=1900
DGENRE=Jazz
TTITLE0=Billie Holiday - On the sunny side of the street
TTITLE1=Glenn Miller - Moonlight serenade
TTITLE2=Louis Armstrong and Ella Fitzgerald - Dream a little dream
TTITLE3=Sidney Bechet - Petite fleur
TTITLE4=Django Reinhardt and Stéphane Grappelli - Nuages
TTITLE5=Judy Garland - Over the rainbow
TTITLE6=Eroll Garner - I'm in the mood for love
TTITLE7=Dizzy Gillespie - They can take that away from me
TTITLE8=Bud Powell - Just one of those things
TTITLE9=Coleman Hawkins - Yesterdays
TTITLE10=Artie Shaw and Gramercy Five - A foggy day
TTITLE11=Bob Crosby - At the Jazz band ball
TTITLE12=The Mills Brothers - In the shade of the apple tree
TTITLE13=Anita O'Day - Malaguena
TTITLE14=Lester Young - One o'clock jump
TTITLE15=Gerry Mulligan Quartet and Chet Baker - The lady is a tramp
TTITLE16=Sarah Vaughan - Ain't misbehavin
TTITLE17=Miles Davis - Venus de milo
TTITLE18=Benny Goodman - Get happy
TTITLE19=BuddY Rich - On a slow boat to China
TTITLE20=Dexter Gordon - I've found a new baby
TTITLE21=Lionel Hampton - Muskrat ramble
TTITLE22=Benny Carter and Oscar Peterson Trio - Imagination
TTITLE23=Frank Sinatra - The song is you
TTITLE24=Ella Fitzgerald - Baby won't you please come home
EXTD=
EXTT0=
EXTT1=
EXTT2=
EXTT3=
EXTT4=
EXTT5=
EXTT6=
EXTT7=
EXTT8=
EXTT9=
EXTT10=
EXTT11=
EXTT12=
EXTT13=
EXTT14=
EXTT15=
EXTT16=
EXTT17=
EXTT18=
EXTT19=
EXTT20=
EXTT21=
EXTT22=
EXTT23=
EXTT24=
PLAYORDER=
